<?xml version="1.0" encoding="UTF-8" standalone="no"?>
<svg width="100px" height="100px" viewBox="0 0 100 100" version="1.1" xmlns="http://www.w3.org/2000/svg" xmlns:xlink="http://www.w3.org/1999/xlink">
    <path d="M100,88 C100,94.6 94.6,100 88,100 L12,100 C5.4,100 0,94.6 0,88 L0,12 C0,5.4 5.4,0 12,0 L88,0 C94.6,0 100,5.4 100,12 L100,88 L100,88 Z" id="Shape" fill="#f77e75"></path>
    <path fill="#fff" d="m70 46.1c-3.5-1.5-4-2.8-4-4.2 0-1.5 1-2.8 2.2-3.9 2.1-1.9 3.2-4.5 3.2-7.5 0-5.6-3.5-10.5-9.8-10.5-5.4 0-8.7 3.6-9.6 8.2-0.1 0.4 0.1 0.8 0.4 1 4.5 3.2 7.3 8.6 7.3 15.1 0 4.5-1.5 8.6-4.3 11.7-0.4 0.5-0.3 1.3 0.4 1.6 1.7 0.7 3.7 1.7 5.7 2.8 0.6 0.4 1.3 0.6 2 0.6h11.5c2.8 0 5-2.2 5-4.9v-0.8c0-4.5-4.9-7-10-9.2z m-17.9 16.5c-4.2-1.7-4.8-3.3-4.8-5 0-1.7 1.2-3.3 2.6-4.6 2.4-2.2 3.8-5.2 3.8-8.8 0-6.6-4.2-12.3-11.6-12.3s-11.6 5.7-11.6 12.3c0 3.6 1.3 6.6 3.8 8.8 1.4 1.2 2.6 2.9 2.6 4.6 0 1.7-0.6 3.2-4.8 5-6.1 2.5-11.9 5.4-12 10.7v0.9c0 3.2 2.7 5.8 6 5.8h31.9c3.3 0 6-2.6 6-5.8v-0.9c0-5.3-5.8-8.2-11.9-10.7z" id="Path-1"/>
</svg>