<?xml version="1.0" encoding="UTF-8" standalone="no"?>
<svg width="100px" height="100px" viewBox="0 0 100 100" version="1.1" xmlns="http://www.w3.org/2000/svg" xmlns:xlink="http://www.w3.org/1999/xlink">
    <path d="M100,88 C100,94.6 94.6,100 88,100 L12,100 C5.4,100 0,94.6 0,88 L0,12 C0,5.4 5.4,0 12,0 L88,0 C94.6,0 100,5.4 100,12 L100,88 L100,88 Z" id="Shape" fill="#6b92dc"></path>
    <path fill="#fff" d="m77 70h-54c-1.6 0-3 1.3-3 3 0 1.6 1.3 3 3 3h54c1.6 0 3-1.3 3-3s-1.3-3-3-3z m-53-6h34v-4c0-1.1 0.9-2 2-2h10c1.1 0 2 0.9 2 2v4h4c1.1 0 2-0.9 2-2v-34c0-1.1-0.9-2-2-2h-52c-1.1 0-2 0.9-2 2v34c0 1.1 0.9 2 2 2z m9-26c0-1.1 0.9-2 2-2h29c1.1 0 2 0.9 2 2v2c0 1.1-0.9 2-2 2h-29c-1.1 0-2-0.9-2-2v-2z m0 12c0-1.1 0.9-2 2-2h19c1.1 0 2 0.9 2 2v2c0 1.1-0.9 2-2 2h-19c-1.1 0-2-0.9-2-2v-2z" id="Path-1"/>
</svg>