<?xml version="1.0" encoding="UTF-8" standalone="no"?>
<svg width="100px" height="100px" viewBox="0 0 100 100" version="1.1" xmlns="http://www.w3.org/2000/svg" xmlns:xlink="http://www.w3.org/1999/xlink">
    <path d="M100,88 C100,94.6 94.6,100 88,100 L12,100 C5.4,100 0,94.6 0,88 L0,12 C0,5.4 5.4,0 12,0 L88,0 C94.6,0 100,5.4 100,12 L100,88 L100,88 Z" id="Shape" fill="#618fd8"></path>
    <path fill="#fff" d="m50 20c-16.5 0-30 13.5-30 30s13.5 30 30 30 30-13.5 30-30-13.5-30-30-30z m0 52c-12.1 0-22-9.9-22-22s9.9-22 22-22 22 9.9 22 22-9.9 22-22 22z m11.6-34.9l-16.6 6c-0.9 0.3-1.6 1-1.9 1.9l-6 16.6c-0.3 0.8 0.5 1.6 1.3 1.3l16.6-6c0.9-0.3 1.6-1 1.9-1.9l6-16.6c0.3-0.8-0.5-1.6-1.3-1.3z m-11.6 16.9c-2.2 0-4-1.8-4-4s1.8-4 4-4 4 1.8 4 4-1.8 4-4 4z" id="Path-1"/>
</svg>